<svg xmlns="http://www.w3.org/2000/svg" viewBox="0 0 144.1 19.1"><g id="Layer_2"><g id="Layer_1-2"><path fill="#552bbf" d="M1.1 7.3c.4-.7 1-1.3 1.7-1.7.7-.4 1.5-.6 2.4-.6s1.9.2 2.6.7 1.3 1.2 1.7 2.1H7.7c-.2-.5-.6-.9-1-1.1-.4-.2-.9-.4-1.5-.4s-1.2.1-1.6.4c-.5.3-.9.7-1.1 1.2-.3.5-.4 1.1-.4 1.8s.1 1.3.4 1.8c.3.5.6.9 1.1 1.2.5.3 1 .4 1.6.4s1-.1 1.5-.4c.4-.2.8-.6 1-1.1h1.8c-.3.9-.9 1.6-1.7 2-.8.5-1.6.7-2.6.7s-1.7-.2-2.4-.6-1.3-1-1.7-1.7-.6-1.5-.6-2.4.2-1.7.6-2.4zM12.7 4.6v9.8h-1.5V4.6h1.5zM16 14c-.6-.3-1-.8-1.3-1.3-.3-.6-.5-1.2-.5-2s.2-1.4.5-2c.3-.6.8-1 1.3-1.3.6-.3 1.2-.5 1.9-.5s1.3.2 1.9.5 1 .8 1.3 1.3c.3.6.5 1.2.5 2s-.2 1.4-.5 2-.8 1-1.4 1.3-1.2.5-1.9.5-1.3-.2-1.9-.5zm3-1.1c.3-.2.6-.5.8-.8.2-.4.3-.8.3-1.4s-.1-1-.3-1.3c-.2-.4-.5-.6-.8-.8-.3-.2-.7-.3-1.1-.3s-.8 0-1.1.3-.6.5-.8.8c-.2.4-.3.8-.3 1.3 0 .8.2 1.4.6 1.8.4.4.9.6 1.5.6s.8 0 1.1-.3zM29.8 7.1v7.3h-1.5v-.9c-.2.3-.6.5-.9.7s-.8.3-1.2.3-1.1-.1-1.5-.4c-.5-.2-.8-.6-1.1-1.1s-.4-1-.4-1.7V7h1.5v4.1c0 .7.2 1.2.5 1.5.3.4.8.5 1.3.5s1-.2 1.3-.5c.3-.3.5-.9.5-1.5V7h1.5zM31.8 8.7c.3-.6.7-1 1.2-1.3.5-.3 1.1-.5 1.8-.5s1 .1 1.4.3.8.5 1.1.8V4.5h1.5v9.8h-1.5v-1.1c-.2.4-.6.6-1 .9-.4.2-.9.3-1.5.3s-1.2-.2-1.7-.5-.9-.8-1.2-1.4c-.3-.6-.5-1.2-.5-2s.2-1.4.5-2zm5.2.7c-.2-.4-.5-.7-.8-.9s-.7-.3-1.1-.3-.8 0-1.1.3c-.3.2-.6.5-.8.8-.2.4-.3.8-.3 1.3s.1.9.3 1.3c.2.4.5.7.8.9.3.2.7.3 1.1.3s.8 0 1.1-.3.6-.5.8-.9c.2-.4.3-.8.3-1.3s-.1-.9-.3-1.3z"/><path fill="#ddd" d="M49.9 5.7c.7.4 1.3.9 1.7 1.6.4.7.6 1.5.6 2.5s-.2 1.8-.6 2.4c-.4.7-1 1.2-1.7 1.6-.7.4-1.6.6-2.6.6h-3V5.2h3c1 0 1.8.2 2.6.6zm-.1 6.6c.6-.6.9-1.4.9-2.5s-.3-1.9-.9-2.5c-.6-.6-1.4-.9-2.5-.9h-1.5v6.8h1.5c1.1 0 1.9-.3 2.5-.9zM55 14c-.6-.3-1-.8-1.3-1.3-.3-.6-.5-1.2-.5-2s.2-1.4.5-2c.3-.6.8-1 1.3-1.3s1.2-.5 1.9-.5 1.3.2 1.9.5 1 .8 1.3 1.3c.3.6.5 1.2.5 2s-.2 1.4-.5 2-.8 1-1.4 1.3-1.2.5-1.9.5-1.3-.2-1.9-.5zm3-1.1c.3-.2.6-.5.8-.8.2-.4.3-.8.3-1.4s-.1-1-.3-1.3c-.2-.4-.5-.6-.8-.8-.3-.2-.7-.3-1.1-.3s-.8 0-1.1.3-.6.5-.8.8c-.2.4-.3.8-.3 1.3 0 .8.2 1.4.6 1.8.4.4.9.6 1.5.6s.8 0 1.1-.3zM62.1 8.7c.3-.6.7-1 1.3-1.3.5-.3 1.2-.5 1.9-.5s1.6.2 2.2.6c.6.4 1 1 1.2 1.8h-1.6c-.1-.4-.3-.6-.6-.9-.3-.2-.7-.3-1.1-.3s-1.1.2-1.5.7c-.4.4-.6 1.1-.6 1.8s.2 1.4.6 1.8c.4.4.9.7 1.5.7.9 0 1.5-.4 1.7-1.2h1.6c-.2.7-.6 1.3-1.2 1.8-.6.4-1.3.7-2.2.7s-1.3-.2-1.9-.5c-.5-.3-1-.8-1.3-1.3-.3-.6-.5-1.2-.5-2s.2-1.4.5-2zM71.3 14.2c-.5-.2-.8-.5-1.1-.9s-.4-.8-.4-1.2h1.6c0 .3.2.6.4.8.3.2.6.3 1 .3s.8 0 1-.2c.2-.2.4-.4.4-.6s-.1-.5-.4-.6-.7-.3-1.2-.4c-.5-.2-1-.3-1.3-.4-.3-.1-.6-.4-.9-.7-.3-.3-.4-.7-.4-1.2s.1-.7.3-1.1c.2-.3.6-.6 1-.8s.9-.3 1.5-.3c.8 0 1.5.2 2 .6.5.4.8 1 .8 1.7h-1.5c0-.3-.2-.6-.4-.8-.2-.2-.6-.3-1-.3s-.7 0-.9.2c-.2.2-.3.4-.3.6s0 .4.2.5c.1.1.3.2.5.3s.5.2.9.3c.5.1 1 .3 1.3.4.3.1.6.4.9.6.2.3.4.7.4 1.1 0 .4-.1.8-.3 1.1s-.6.6-1 .8c-.4.2-.9.3-1.5.3s-1.1-.1-1.5-.3z"/></g></g></svg>