<svg version="1.1" id="Layer_2_00000109007426990671059580000017609737571494663810_" xmlns="http://www.w3.org/2000/svg" x="0" y="0" viewBox="0 0 479.8 66.8" xml:space="preserve"><style>.st0{fill:#fff}.st1{fill:#552bbf}</style><g id="Layer_1-2"><path class="st0" d="M18.2 52.3c-2.6 0-5-.6-7-1.8-2.1-1.2-3.7-2.8-4.8-4.9-1.2-2.1-1.8-4.4-1.8-7 0-2.7.6-5 1.7-7.1 1.2-2.1 2.7-3.7 4.7-4.9 2-1.2 4.3-1.8 6.9-1.8 1.9 0 3.7.4 5.3 1.1s3.1 1.9 4.3 3.3c.5.5.6 1.1.5 1.6 0 .7-.4 1.2-1 1.6-.5.3-1 .4-1.5.3-.6-.1-1.1-.4-1.5-.9-1.6-1.7-3.6-2.6-6-2.6-1.7 0-3.2.4-4.4 1.2-1.3.8-2.3 1.9-3 3.2-.7 1.4-1.1 3-1.1 4.9 0 1.8.4 3.4 1.1 4.7.7 1.4 1.8 2.5 3.1 3.3s2.8 1.2 4.6 1.2c1.2 0 2.2-.1 3-.4.9-.3 1.7-.7 2.4-1.3.5-.4 1.1-.7 1.6-.7.6 0 1.1.1 1.5.5.6.5.9 1 .9 1.6.1.6-.1 1.1-.6 1.6-2.4 2.2-5.4 3.3-8.9 3.3zM42 52.1c-1.4 0-2.7-.4-3.9-1.2-1.1-.8-2-1.9-2.6-3.2-.6-1.4-.9-2.9-.9-4.7V16c0-.7.2-1.3.7-1.8s1.1-.7 1.8-.7 1.3.2 1.8.7.7 1.1.7 1.8v27c0 1.2.2 2.2.7 3s1.1 1.2 1.8 1.2h1.2c.7 0 1.2.2 1.6.7.4.5.6 1.1.6 1.8s-.3 1.3-.9 1.8c-.7.3-1.5.6-2.6.6zM61.2 52.3c-2.7 0-5-.6-7.1-1.8-2-1.2-3.6-2.8-4.8-4.8-1.2-2.1-1.8-4.4-1.8-7.1 0-2.7.6-5.1 1.8-7.1 1.2-2.1 2.8-3.7 4.8-4.8 2-1.2 4.4-1.8 7.1-1.8 2.6 0 5 .6 7 1.8 2 1.2 3.6 2.8 4.8 4.8 1.2 2.1 1.8 4.4 1.8 7.1 0 2.7-.6 5-1.7 7.1-1.2 2.1-2.7 3.7-4.8 4.8-2.1 1.2-4.5 1.8-7.1 1.8zm0-4.5c1.7 0 3.2-.4 4.5-1.2 1.3-.8 2.3-1.9 3.1-3.3.7-1.4 1.1-3 1.1-4.8s-.4-3.4-1.1-4.8c-.7-1.4-1.8-2.5-3.1-3.3-1.3-.8-2.8-1.2-4.5-1.2s-3.2.4-4.5 1.2-2.4 1.9-3.1 3.3c-.8 1.4-1.1 3-1.1 4.8s.4 3.4 1.1 4.8c.8 1.4 1.8 2.5 3.1 3.3 1.3.8 2.8 1.2 4.5 1.2zM93.6 52.3c-2.3 0-4.3-.5-6.1-1.5-1.8-1-3.2-2.4-4.2-4.3s-1.6-4.2-1.6-6.9V27.5c0-.7.2-1.3.7-1.8s1.1-.7 1.8-.7 1.3.2 1.8.7.7 1.1.7 1.8v12.1c0 1.8.3 3.4 1 4.6.7 1.2 1.6 2.1 2.8 2.7 1.2.6 2.5.9 4 .9 1.4 0 2.7-.3 3.8-.8 1.1-.6 2-1.3 2.6-2.3.7-1 1-2 1-3.2h3.1c0 2-.5 3.9-1.5 5.5s-2.4 2.9-4.1 3.9c-1.6.9-3.6 1.4-5.8 1.4zm10.9-.2c-.7 0-1.3-.2-1.8-.7s-.7-1.1-.7-1.8v-22c0-.8.2-1.4.7-1.8.5-.5 1.1-.7 1.8-.7.8 0 1.4.2 1.8.7.5.5.7 1.1.7 1.8v22c0 .7-.2 1.3-.7 1.8-.4.4-1 .7-1.8.7zM128.2 52.3c-2.6 0-4.9-.6-6.9-1.8-2.1-1.2-3.7-2.8-4.9-4.9-1.2-2.1-1.8-4.4-1.8-7s.6-4.9 1.7-7 2.6-3.7 4.5-4.9c1.9-1.2 4.1-1.8 6.5-1.8 1.9 0 3.7.4 5.4 1.2 1.6.8 3 1.9 4.1 3.3V16c0-.8.2-1.4.7-1.8.5-.5 1.1-.7 1.8-.7.8 0 1.4.2 1.8.7.5.5.7 1.1.7 1.8v22.5c0 2.6-.6 4.9-1.8 7s-2.8 3.7-4.9 4.9c-2 1.3-4.4 1.9-6.9 1.9zm0-4.5c1.7 0 3.2-.4 4.5-1.2s2.4-1.9 3.1-3.3c.8-1.4 1.1-3 1.1-4.7 0-1.8-.4-3.4-1.1-4.7-.8-1.4-1.8-2.5-3.1-3.3s-2.8-1.2-4.5-1.2c-1.6 0-3.1.4-4.5 1.2-1.3.8-2.4 1.9-3.2 3.3-.8 1.4-1.2 3-1.2 4.7s.4 3.3 1.2 4.7c.8 1.4 1.8 2.5 3.2 3.3 1.3.8 2.8 1.2 4.5 1.2z"/><path class="st1" d="M171.4 52.3c-2.6 0-4.9-.6-6.9-1.8-2.1-1.2-3.7-2.8-4.9-4.9-1.2-2.1-1.8-4.4-1.8-7s.6-4.9 1.7-7c1.1-2.1 2.6-3.7 4.5-4.9 1.9-1.2 4.1-1.8 6.5-1.8 1.9 0 3.7.4 5.4 1.2 1.6.8 3 1.9 4.1 3.3V16c0-.8.2-1.4.7-1.8.5-.5 1.1-.7 1.8-.7.8 0 1.4.2 1.8.7.5.5.7 1.1.7 1.8v22.5c0 2.6-.6 4.9-1.8 7s-2.8 3.7-4.9 4.9c-2.1 1.3-4.4 1.9-6.9 1.9zm0-4.5c1.7 0 3.2-.4 4.5-1.2s2.4-1.9 3.1-3.3c.8-1.4 1.1-3 1.1-4.7 0-1.8-.4-3.4-1.1-4.7-.8-1.4-1.8-2.5-3.1-3.3s-2.8-1.2-4.5-1.2c-1.6 0-3.1.4-4.5 1.2-1.3.8-2.4 1.9-3.2 3.3-.8 1.4-1.2 3-1.2 4.7s.4 3.3 1.2 4.7 1.8 2.5 3.2 3.3c1.3.8 2.8 1.2 4.5 1.2zM206.1 52.3c-2.7 0-5-.6-7.1-1.8-2-1.2-3.6-2.8-4.8-4.8-1.2-2.1-1.8-4.4-1.8-7.1 0-2.7.6-5.1 1.8-7.1 1.2-2.1 2.8-3.7 4.8-4.8 2-1.2 4.4-1.8 7.1-1.8 2.6 0 5 .6 7 1.8 2 1.2 3.6 2.8 4.8 4.8 1.2 2.1 1.8 4.4 1.8 7.1 0 2.7-.6 5-1.7 7.1-1.2 2.1-2.7 3.7-4.8 4.8-2.1 1.2-4.5 1.8-7.1 1.8zm0-4.5c1.7 0 3.2-.4 4.5-1.2s2.3-1.9 3.1-3.3c.7-1.4 1.1-3 1.1-4.8s-.4-3.4-1.1-4.8c-.7-1.4-1.8-2.5-3.1-3.3s-2.8-1.2-4.5-1.2-3.2.4-4.5 1.2-2.4 1.9-3.1 3.3c-.8 1.4-1.1 3-1.1 4.8s.4 3.4 1.1 4.8c.8 1.4 1.8 2.5 3.1 3.3 1.2.8 2.8 1.2 4.5 1.2zM239.4 52.3c-2.6 0-5-.6-7-1.8-2.1-1.2-3.7-2.8-4.8-4.9-1.2-2.1-1.8-4.4-1.8-7 0-2.7.6-5 1.7-7.1 1.2-2.1 2.7-3.7 4.7-4.9 2-1.2 4.3-1.8 6.9-1.8 1.9 0 3.7.4 5.3 1.1s3.1 1.9 4.3 3.3c.5.5.6 1.1.5 1.6-.1.6-.5 1.1-1.1 1.5-.5.3-1 .4-1.5.3-.6-.1-1.1-.4-1.5-.9-1.6-1.7-3.6-2.6-6-2.6-1.7 0-3.2.4-4.4 1.2-1.3.8-2.3 1.9-3 3.2-.7 1.4-1.1 3-1.1 4.9 0 1.8.4 3.4 1.1 4.7.7 1.4 1.8 2.5 3.1 3.3s2.8 1.2 4.6 1.2c1.2 0 2.2-.1 3-.4.9-.3 1.7-.7 2.4-1.3.5-.4 1.1-.7 1.6-.7.6 0 1.1.1 1.5.5.6.5.9 1 .9 1.6.1.6-.1 1.1-.6 1.6-2.3 2.3-5.2 3.4-8.8 3.4zM266.7 52.3c-2.3 0-4.4-.4-6.4-1.1-2-.7-3.5-1.6-4.6-2.7-.5-.5-.7-1.1-.6-1.8s.4-1.2 1-1.7c.7-.5 1.3-.7 2-.7.6.1 1.2.4 1.7.9.6.6 1.5 1.2 2.7 1.8 1.2.5 2.6.8 4.1.8 1.9 0 3.4-.3 4.4-.9 1-.6 1.5-1.4 1.6-2.4 0-1-.4-1.8-1.4-2.6-1-.7-2.7-1.3-5.3-1.8-3.3-.7-5.7-1.6-7.2-3-1.5-1.3-2.2-2.9-2.2-4.8 0-1.7.5-3.1 1.5-4.2s2.3-1.9 3.8-2.5c1.5-.5 3.2-.8 4.8-.8 2.2 0 4.1.3 5.8 1 1.7.7 3 1.6 4 2.9.5.5.7 1.1.6 1.7 0 .6-.3 1.1-.8 1.5s-1.2.5-1.9.3c-.7-.1-1.3-.4-1.8-.9-.8-.8-1.7-1.3-2.7-1.6s-2.1-.4-3.3-.4c-1.4 0-2.7.2-3.7.7s-1.5 1.2-1.5 2.2c0 .6.2 1.1.5 1.6s.9.9 1.9 1.3c.9.4 2.3.7 4 1.1 2.5.5 4.4 1.1 5.9 1.9 1.4.8 2.5 1.6 3.1 2.6s.9 2.2.9 3.5c0 1.5-.4 2.9-1.2 4.1-.8 1.2-2 2.2-3.6 2.9-1.9.7-3.8 1.1-6.1 1.1z"/></g></svg>